solid OpenSCAD_Model
  facet normal -1 0 0
    outer loop
      vertex -2.5 -2.5 0.0005
      vertex -2.5 2.5 0.0005
      vertex -2.5 -2.5 -0.0005
    endloop
  endfacet
  facet normal -1 0 0
    outer loop
      vertex -2.5 -2.5 -0.0005
      vertex -2.5 2.5 0.0005
      vertex -2.5 2.5 -0.0005
    endloop
  endfacet
  facet normal -0.894463 0 0.447142
    outer loop
      vertex -0.0005 -0.0005 5.0005
      vertex -0.0005 0.0005 5.0005
      vertex -2.5 -2.5 0.0005
    endloop
  endfacet
  facet normal -0.894463 0 0.447142
    outer loop
      vertex -2.5 -2.5 0.0005
      vertex -0.0005 0.0005 5.0005
      vertex -2.5 2.5 0.0005
    endloop
  endfacet
  facet normal 0 -0.894463 0.447142
    outer loop
      vertex -2.5 -2.5 0.0005
      vertex 2.5 -2.5 0.0005
      vertex 0.0005 -0.0005 5.0005
    endloop
  endfacet
  facet normal 0 -0.894463 0.447142
    outer loop
      vertex -0.0005 -0.0005 5.0005
      vertex -2.5 -2.5 0.0005
      vertex 0.0005 -0.0005 5.0005
    endloop
  endfacet
  facet normal 0 -1 0
    outer loop
      vertex -2.5 -2.5 -0.0005
      vertex 2.5 -2.5 -0.0005
      vertex 2.5 -2.5 0.0005
    endloop
  endfacet
  facet normal 0 -1 0
    outer loop
      vertex -2.5 -2.5 0.0005
      vertex -2.5 -2.5 -0.0005
      vertex 2.5 -2.5 0.0005
    endloop
  endfacet
  facet normal 0 0 -1
    outer loop
      vertex -2.5 2.5 -0.0005
      vertex 2.5 2.5 -0.0005
      vertex -2.5 -2.5 -0.0005
    endloop
  endfacet
  facet normal 0 0 -1
    outer loop
      vertex -2.5 -2.5 -0.0005
      vertex 2.5 2.5 -0.0005
      vertex 2.5 -2.5 -0.0005
    endloop
  endfacet
  facet normal 0 1 0
    outer loop
      vertex -2.5 2.5 0.0005
      vertex 2.5 2.5 0.0005
      vertex -2.5 2.5 -0.0005
    endloop
  endfacet
  facet normal 0 1 0
    outer loop
      vertex -2.5 2.5 -0.0005
      vertex 2.5 2.5 0.0005
      vertex 2.5 2.5 -0.0005
    endloop
  endfacet
  facet normal 0 0.894463 0.447142
    outer loop
      vertex -0.0005 0.0005 5.0005
      vertex 0.0005 0.0005 5.0005
      vertex -2.5 2.5 0.0005
    endloop
  endfacet
  facet normal 0 0.894463 0.447142
    outer loop
      vertex -2.5 2.5 0.0005
      vertex 0.0005 0.0005 5.0005
      vertex 2.5 2.5 0.0005
    endloop
  endfacet
  facet normal 0 0 1
    outer loop
      vertex -0.0005 -0.0005 5.0005
      vertex 0.0005 -0.0005 5.0005
      vertex 0.0005 0.0005 5.0005
    endloop
  endfacet
  facet normal 0 0 1
    outer loop
      vertex -0.0005 0.0005 5.0005
      vertex -0.0005 -0.0005 5.0005
      vertex 0.0005 0.0005 5.0005
    endloop
  endfacet
  facet normal 0.894463 0 0.447142
    outer loop
      vertex 0.0005 -0.0005 5.0005
      vertex 2.5 -2.5 0.0005
      vertex 2.5 2.5 0.0005
    endloop
  endfacet
  facet normal 0.894463 0 0.447142
    outer loop
      vertex 0.0005 0.0005 5.0005
      vertex 0.0005 -0.0005 5.0005
      vertex 2.5 2.5 0.0005
    endloop
  endfacet
  facet normal 1 0 0
    outer loop
      vertex 2.5 -2.5 -0.0005
      vertex 2.5 2.5 -0.0005
      vertex 2.5 2.5 0.0005
    endloop
  endfacet
  facet normal 1 0 0
    outer loop
      vertex 2.5 -2.5 0.0005
      vertex 2.5 -2.5 -0.0005
      vertex 2.5 2.5 0.0005
    endloop
  endfacet
endsolid OpenSCAD_Model
