solid ascii
  facet normal 0.000000e+000 0.000000e+000 1.000000e+000
    outer loop
      vertex   -9.560307e+001 1.034202e+002 2.000000e+001
      vertex   -1.000000e+002 1.086603e+002 2.000000e+001
      vertex   -9.560307e+001 9.657980e+001 2.000000e+001
    endloop
  endfacet
  facet normal 0.000000e+000 0.000000e+000 1.000000e+000
    outer loop
      vertex   -9.560307e+001 9.657980e+001 2.000000e+001
      vertex   -1.000000e+002 1.086603e+002 2.000000e+001
      vertex   -1.000000e+002 9.133975e+001 2.000000e+001
    endloop
  endfacet
  facet normal 0.000000e+000 -0.000000e+000 1.000000e+000
    outer loop
      vertex   -1.000000e+002 9.133975e+001 2.000000e+001
      vertex   -1.000000e+002 1.086603e+002 2.000000e+001
      vertex   -1.067365e+002 1.098481e+002 2.000000e+001
    endloop
  endfacet
  facet normal 0.000000e+000 -0.000000e+000 1.000000e+000
    outer loop
      vertex   -1.067365e+002 9.015192e+001 2.000000e+001
      vertex   -1.067365e+002 1.098481e+002 2.000000e+001
      vertex   -1.126604e+002 1.064279e+002 2.000000e+001
    endloop
  endfacet
  facet normal 0.000000e+000 -0.000000e+000 1.000000e+000
    outer loop
      vertex   -1.126604e+002 9.357212e+001 2.000000e+001
      vertex   -1.126604e+002 1.064279e+002 2.000000e+001
      vertex   -1.150000e+002 1.000000e+002 2.000000e+001
    endloop
  endfacet
  facet normal -0.000000e+000 -0.000000e+000 1.000000e+000
    outer loop
      vertex   -1.126604e+002 9.357212e+001 2.000000e+001
      vertex   -1.067365e+002 9.015192e+001 2.000000e+001
      vertex   -1.126604e+002 1.064279e+002 2.000000e+001
    endloop
  endfacet
  facet normal 0.000000e+000 0.000000e+000 1.000000e+000
    outer loop
      vertex   -1.000000e+002 9.133975e+001 2.000000e+001
      vertex   -1.067365e+002 1.098481e+002 2.000000e+001
      vertex   -1.067365e+002 9.015192e+001 2.000000e+001
    endloop
  endfacet
  facet normal -0.000000e+000 -0.000000e+000 -1.000000e+000
    outer loop
      vertex   -9.560307e+001 1.034202e+002 0.000000e+000
      vertex   -9.560307e+001 9.657980e+001 0.000000e+000
      vertex   -1.000000e+002 1.086603e+002 0.000000e+000
    endloop
  endfacet
  facet normal 0.000000e+000 -0.000000e+000 -1.000000e+000
    outer loop
      vertex   -1.000000e+002 1.086603e+002 0.000000e+000
      vertex   -9.560307e+001 9.657980e+001 0.000000e+000
      vertex   -1.000000e+002 9.133975e+001 0.000000e+000
    endloop
  endfacet
  facet normal 0.000000e+000 -0.000000e+000 -1.000000e+000
    outer loop
      vertex   -1.067365e+002 1.098481e+002 0.000000e+000
      vertex   -1.000000e+002 9.133975e+001 0.000000e+000
      vertex   -1.067365e+002 9.015192e+001 0.000000e+000
    endloop
  endfacet
  facet normal -0.000000e+000 -0.000000e+000 -1.000000e+000
    outer loop
      vertex   -1.126604e+002 1.064279e+002 0.000000e+000
      vertex   -1.067365e+002 9.015192e+001 0.000000e+000
      vertex   -1.126604e+002 9.357212e+001 0.000000e+000
    endloop
  endfacet
  facet normal 0.000000e+000 0.000000e+000 -1.000000e+000
    outer loop
      vertex   -1.150000e+002 1.000000e+002 0.000000e+000
      vertex   -1.126604e+002 1.064279e+002 0.000000e+000
      vertex   -1.126604e+002 9.357212e+001 0.000000e+000
    endloop
  endfacet
  facet normal -0.000000e+000 -0.000000e+000 -1.000000e+000
    outer loop
      vertex   -1.000000e+002 1.086603e+002 0.000000e+000
      vertex   -1.000000e+002 9.133975e+001 0.000000e+000
      vertex   -1.067365e+002 1.098481e+002 0.000000e+000
    endloop
  endfacet
  facet normal -0.000000e+000 -0.000000e+000 -1.000000e+000
    outer loop
      vertex   -1.067365e+002 1.098481e+002 0.000000e+000
      vertex   -1.067365e+002 9.015192e+001 0.000000e+000
      vertex   -1.126604e+002 1.064279e+002 0.000000e+000
    endloop
  endfacet
  facet normal 7.660444e-001 -6.427876e-001 0.000000e+000
    outer loop
      vertex   -1.000000e+002 9.133975e+001 2.000000e+001
      vertex   -1.000000e+002 9.133975e+001 0.000000e+000
      vertex   -9.560307e+001 9.657980e+001 2.000000e+001
    endloop
  endfacet
  facet normal 7.660444e-001 -6.427876e-001 0.000000e+000
    outer loop
      vertex   -9.560307e+001 9.657980e+001 2.000000e+001
      vertex   -1.000000e+002 9.133975e+001 0.000000e+000
      vertex   -9.560307e+001 9.657980e+001 0.000000e+000
    endloop
  endfacet
  facet normal 1.736482e-001 -9.848078e-001 0.000000e+000
    outer loop
      vertex   -1.067365e+002 9.015192e+001 2.000000e+001
      vertex   -1.067365e+002 9.015192e+001 0.000000e+000
      vertex   -1.000000e+002 9.133975e+001 2.000000e+001
    endloop
  endfacet
  facet normal 1.736482e-001 -9.848078e-001 0.000000e+000
    outer loop
      vertex   -1.000000e+002 9.133975e+001 2.000000e+001
      vertex   -1.067365e+002 9.015192e+001 0.000000e+000
      vertex   -1.000000e+002 9.133975e+001 0.000000e+000
    endloop
  endfacet
  facet normal -5.000000e-001 -8.660254e-001 -0.000000e+000
    outer loop
      vertex   -1.126604e+002 9.357212e+001 2.000000e+001
      vertex   -1.126604e+002 9.357212e+001 0.000000e+000
      vertex   -1.067365e+002 9.015192e+001 2.000000e+001
    endloop
  endfacet
  facet normal -5.000000e-001 -8.660254e-001 0.000000e+000
    outer loop
      vertex   -1.067365e+002 9.015192e+001 2.000000e+001
      vertex   -1.126604e+002 9.357212e+001 0.000000e+000
      vertex   -1.067365e+002 9.015192e+001 0.000000e+000
    endloop
  endfacet
  facet normal -9.396926e-001 -3.420201e-001 -0.000000e+000
    outer loop
      vertex   -1.150000e+002 1.000000e+002 2.000000e+001
      vertex   -1.150000e+002 1.000000e+002 0.000000e+000
      vertex   -1.126604e+002 9.357212e+001 2.000000e+001
    endloop
  endfacet
  facet normal -9.396926e-001 -3.420201e-001 0.000000e+000
    outer loop
      vertex   -1.126604e+002 9.357212e+001 2.000000e+001
      vertex   -1.150000e+002 1.000000e+002 0.000000e+000
      vertex   -1.126604e+002 9.357212e+001 0.000000e+000
    endloop
  endfacet
  facet normal -9.396926e-001 3.420201e-001 0.000000e+000
    outer loop
      vertex   -1.126604e+002 1.064279e+002 2.000000e+001
      vertex   -1.126604e+002 1.064279e+002 0.000000e+000
      vertex   -1.150000e+002 1.000000e+002 2.000000e+001
    endloop
  endfacet
  facet normal -9.396926e-001 3.420201e-001 0.000000e+000
    outer loop
      vertex   -1.150000e+002 1.000000e+002 2.000000e+001
      vertex   -1.126604e+002 1.064279e+002 0.000000e+000
      vertex   -1.150000e+002 1.000000e+002 0.000000e+000
    endloop
  endfacet
  facet normal -5.000000e-001 8.660254e-001 0.000000e+000
    outer loop
      vertex   -1.067365e+002 1.098481e+002 2.000000e+001
      vertex   -1.067365e+002 1.098481e+002 0.000000e+000
      vertex   -1.126604e+002 1.064279e+002 2.000000e+001
    endloop
  endfacet
  facet normal -5.000000e-001 8.660254e-001 0.000000e+000
    outer loop
      vertex   -1.126604e+002 1.064279e+002 2.000000e+001
      vertex   -1.067365e+002 1.098481e+002 0.000000e+000
      vertex   -1.126604e+002 1.064279e+002 0.000000e+000
    endloop
  endfacet
  facet normal 1.736482e-001 9.848078e-001 0.000000e+000
    outer loop
      vertex   -1.000000e+002 1.086603e+002 2.000000e+001
      vertex   -1.000000e+002 1.086603e+002 0.000000e+000
      vertex   -1.067365e+002 1.098481e+002 2.000000e+001
    endloop
  endfacet
  facet normal 1.736482e-001 9.848078e-001 0.000000e+000
    outer loop
      vertex   -1.067365e+002 1.098481e+002 2.000000e+001
      vertex   -1.000000e+002 1.086603e+002 0.000000e+000
      vertex   -1.067365e+002 1.098481e+002 0.000000e+000
    endloop
  endfacet
  facet normal 7.660444e-001 6.427876e-001 0.000000e+000
    outer loop
      vertex   -9.560307e+001 1.034202e+002 2.000000e+001
      vertex   -9.560307e+001 1.034202e+002 0.000000e+000
      vertex   -1.000000e+002 1.086603e+002 2.000000e+001
    endloop
  endfacet
  facet normal 7.660444e-001 6.427876e-001 0.000000e+000
    outer loop
      vertex   -1.000000e+002 1.086603e+002 2.000000e+001
      vertex   -9.560307e+001 1.034202e+002 0.000000e+000
      vertex   -1.000000e+002 1.086603e+002 0.000000e+000
    endloop
  endfacet
  facet normal 1.000000e+000 -0.000000e+000 0.000000e+000
    outer loop
      vertex   -9.560307e+001 9.657980e+001 2.000000e+001
      vertex   -9.560307e+001 9.657980e+001 0.000000e+000
      vertex   -9.560307e+001 1.034202e+002 2.000000e+001
    endloop
  endfacet
  facet normal 1.000000e+000 -0.000000e+000 0.000000e+000
    outer loop
      vertex   -9.560307e+001 1.034202e+002 2.000000e+001
      vertex   -9.560307e+001 9.657980e+001 0.000000e+000
      vertex   -9.560307e+001 1.034202e+002 0.000000e+000
    endloop
  endfacet
endsolid
